<svg width="48" height="48" viewBox="0 0 48 48" fill="none" xmlns="http://www.w3.org/2000/svg">
<path d="M9 35.0001L4 40.0001M13 39.0001L10 42.0001M6 25.0001C6 25.0001 13.5399 27.54 17 31.0001C20.4601 34.4601 23 42.0001 23 42.0001L30 36.0001V30.0001C38 26.0001 43 20.0001 42 6.00008C28 5.00009 22 10.0001 18 18.0001H12L6 25.0001ZM34 17.0001C34 18.6569 32.6569 20.0001 31 20.0001C29.3431 20.0001 28 18.6569 28 17.0001C28 15.3432 29.3431 14.0001 31 14.0001C32.6569 14.0001 34 15.3432 34 17.0001Z" stroke="#003d53" stroke-width="2" stroke-linecap="square"/>
</svg>
