<svg width="48" height="48" viewBox="0 0 48 48" fill="none" xmlns="http://www.w3.org/2000/svg">
<path d="M23.4482 38.5004C23.6832 38.5004 23.9242 38.4477 24.1711 38.3422C24.4181 38.2367 24.6177 38.1078 24.77 37.9556L38.7893 23.9345C39.2412 23.4825 39.5901 23.0209 39.8359 22.5498C40.0804 22.0763 40.2027 21.5572 40.2027 20.9925C40.2027 20.4206 40.0804 19.8656 39.8359 19.3273C39.5901 18.7878 39.2412 18.2963 38.7893 17.8527L32.0458 11.1092C31.601 10.6572 31.1436 10.3258 30.6737 10.1148C30.2049 9.90377 29.6846 9.79827 29.1128 9.79827C28.5481 9.79827 28.0236 9.90377 27.5393 10.1148C27.055 10.3258 26.5988 10.6566 26.1708 11.1074L24.6027 12.6755L27.9295 16.0113C28.2868 16.3626 28.5535 16.7618 28.7297 17.2089C28.9048 17.6561 28.9923 18.1099 28.9923 18.5702C28.9923 19.5065 28.686 20.281 28.0734 20.8936C27.4608 21.5062 26.6869 21.8119 25.7518 21.8107C25.2903 21.8107 24.8401 21.7406 24.4013 21.6003C23.9625 21.46 23.5675 21.2143 23.2163 20.863L19.7762 17.4355L12.0112 25.1986C11.8302 25.3809 11.6941 25.5877 11.603 25.819C11.5119 26.0504 11.4664 26.2842 11.4664 26.5204C11.4664 26.9448 11.6024 27.2942 11.8746 27.5688C12.1455 27.8445 12.4932 27.9824 12.9176 27.9824C13.1525 27.9824 13.3935 27.9296 13.6405 27.8241C13.8874 27.7174 14.087 27.5879 14.2393 27.4357L19.938 21.737L21.2112 23.0102L15.5215 28.7107C15.3392 28.8917 15.2026 29.0979 15.1115 29.3293C15.0215 29.5618 14.9766 29.7956 14.9766 30.0306C14.9766 30.4322 15.118 30.7745 15.401 31.0574C15.6839 31.3403 16.0262 31.4824 16.4278 31.4836C16.6628 31.4836 16.9037 31.4302 17.1507 31.3236C17.3977 31.2169 17.5973 31.088 17.7495 30.9369L23.8636 24.8336L25.1368 26.105L19.0317 32.2191C18.8722 32.3713 18.7416 32.5709 18.6397 32.8179C18.5366 33.0649 18.485 33.3058 18.485 33.5408C18.485 33.9412 18.6271 34.2829 18.9112 34.5658C19.1941 34.8512 19.5364 34.9938 19.938 34.9938C20.173 34.9938 20.4068 34.9483 20.6393 34.8572C20.8719 34.766 21.0781 34.6294 21.2579 34.4471L27.3721 28.342L28.6452 29.6152L22.5311 35.7293C22.3501 35.9115 22.214 36.1303 22.1229 36.3857C22.0318 36.641 21.9862 36.8742 21.9862 37.0852C21.9862 37.5096 22.1355 37.8519 22.434 38.112C22.7325 38.3722 23.0706 38.5022 23.4482 38.5022M23.4374 40.3005C22.5131 40.3005 21.7219 39.9624 21.0637 39.2863C20.4056 38.6089 20.1166 37.7733 20.197 36.7795C19.1779 36.7915 18.3298 36.4876 17.6524 35.8678C16.9751 35.2468 16.6532 34.3812 16.6867 33.2711C15.5766 33.2831 14.7014 32.9654 14.0613 32.318C13.4211 31.6706 13.1298 30.8182 13.1873 29.7609C12.1875 29.7728 11.3507 29.4911 10.6769 28.9157C10.0044 28.3426 9.66809 27.5442 9.66809 26.5204C9.66809 26.0588 9.75741 25.5973 9.93604 25.1357C10.1147 24.673 10.3784 24.2665 10.7273 23.9165L19.7762 14.8784L24.4193 19.5215C24.5715 19.681 24.7598 19.8122 24.984 19.9153C25.2081 20.0184 25.4605 20.0694 25.741 20.0682C26.1259 20.0682 26.4657 19.9339 26.7606 19.6654C27.0556 19.3968 27.2036 19.0468 27.2048 18.6152C27.2048 18.3347 27.1533 18.0829 27.0502 17.8599C26.9471 17.6357 26.8164 17.4475 26.6581 17.2953L20.4721 11.1092C20.0261 10.6572 19.5628 10.3258 19.082 10.1148C18.6013 9.90377 18.075 9.79827 17.5032 9.79827C16.9385 9.79827 16.4254 9.90377 15.9638 10.1148C15.5035 10.3258 15.0473 10.6572 14.5954 11.1092L9.12142 16.5939C8.73539 16.9776 8.42369 17.4361 8.18632 17.9696C7.94895 18.5019 7.82307 19.0516 7.80868 19.6186C7.79669 20.025 7.83146 20.4153 7.91298 20.7893C7.9945 21.1633 8.12638 21.5158 8.3086 21.8467L6.94551 23.2098C6.6434 22.7278 6.40723 22.1728 6.237 21.5446C6.06676 20.9164 5.98823 20.275 6.00142 19.6204C6.01581 18.8028 6.17945 18.0206 6.49235 17.2737C6.80525 16.5268 7.25362 15.8608 7.83745 15.2758L13.2772 9.83603C13.9042 9.21503 14.5678 8.75348 15.2679 8.45137C15.968 8.15046 16.7251 8 17.5391 8C18.3531 8 19.1036 8.15105 19.7906 8.45316C20.4787 8.75407 21.1333 9.21503 21.7543 9.83603L23.3188 11.4023L24.8868 9.83603C25.5138 9.21503 26.1714 8.75348 26.8595 8.45137C27.5477 8.15046 28.2988 8 29.1128 8C29.9268 8 30.6839 8.15105 31.384 8.45316C32.0829 8.75407 32.7423 9.21503 33.3621 9.83603L40.0624 16.5346C40.6822 17.1544 41.1606 17.8503 41.4975 18.6224C41.8343 19.3944 42.0022 20.1875 42.001 21.0015C42.001 21.8167 41.8331 22.5678 41.4975 23.2547C41.1618 23.9417 40.6834 24.5962 40.0624 25.2184L26.0413 39.2269C25.6685 39.601 25.2621 39.8731 24.8221 40.0434C24.3833 40.2136 23.9218 40.2987 23.4374 40.2987" fill="#003d53"/>
</svg>
