<svg width="48" height="48" viewBox="0 0 48 48" fill="none" xmlns="http://www.w3.org/2000/svg">
<path d="M26.0003 26.1204C25.3512 26.0409 24.6841 26 24.0003 26C17.218 26 12.0723 30.0287 9.96524 35.7258C9.14764 37.9365 11.0369 40 13.394 40H23.0003M36.0003 42.1667C36.5003 42.1667 42.0003 39.3333 42.0003 35.5C42.0003 32.8333 40.3336 31.5 38.667 31.5C37.0003 31.5 36.0003 32.5 36.0003 32.5C36.0003 32.5 35.0003 31.5 33.3336 31.5C31.667 31.5 30.0003 32.8333 30.0003 35.5C30.0003 39.3333 35.5003 42.1667 36.0003 42.1667ZM31.0003 13C31.0003 16.866 27.8663 20 24.0003 20C20.1343 20 17.0003 16.866 17.0003 13C17.0003 9.13401 20.1343 6 24.0003 6C27.8663 6 31.0003 9.13401 31.0003 13Z" stroke="#003d53" stroke-width="2" stroke-linecap="round" stroke-linejoin="round"/>
</svg>
