<svg width="48" height="48" viewBox="0 0 48 48" fill="none" xmlns="http://www.w3.org/2000/svg">
<path d="M42 16L36 8H12L6 16M42 16V18C42 19.777 41.2275 21.3736 40 22.4722M42 16H6M6 16V18C6 19.777 6.7725 21.3736 8 22.4722M30 18C30 21.3137 32.6863 24 36 24C37.5367 24 38.9385 23.4223 40 22.4722M30 18V16M30 18C30 21.3137 27.3137 24 24 24C20.6863 24 18 21.3137 18 18M18 18C18 21.3137 15.3137 24 12 24C10.4633 24 9.06151 23.4223 8 22.4722M18 18V16M28 40L28 34C28 31.7909 26.2091 30 24 30C21.7909 30 20 31.7909 20 34L20 40M8 22.4722V40H40V22.4722" stroke="#003d53" stroke-width="2" stroke-linecap="round" stroke-linejoin="round"/>
</svg>
